<svg xmlns="http://www.w3.org/2000/svg" xmlns:xlink="http://www.w3.org/1999/xlink" width="500" zoomAndPan="magnify" viewBox="0 0 375 374.999991" height="500" preserveAspectRatio="xMidYMid meet" version="1.0"><defs><g/><clipPath id="9ef9eaa598"><path d="M 157.214844 132 L 178 132 L 178 162 L 157.214844 162 Z M 157.214844 132 " clip-rule="nonzero"/></clipPath><clipPath id="706452f3e8"><path d="M 157.214844 131 L 179 131 L 179 163 L 157.214844 163 Z M 157.214844 131 " clip-rule="nonzero"/></clipPath><clipPath id="c5ee821c49"><path d="M 197 132 L 217.964844 132 L 217.964844 162 L 197 162 Z M 197 132 " clip-rule="nonzero"/></clipPath><clipPath id="d718a283f8"><path d="M 196 131 L 217.964844 131 L 217.964844 163 L 196 163 Z M 196 131 " clip-rule="nonzero"/></clipPath><clipPath id="b7da53e247"><path d="M 176 123.375 L 198 123.375 L 198 170.625 L 176 170.625 Z M 176 123.375 " clip-rule="nonzero"/></clipPath></defs><rect x="-37.5" width="450" fill="#ffffff" y="-37.499999" height="449.999989" fill-opacity="1"/><rect x="-37.5" width="450" fill="#000000" y="-37.499999" height="449.999989" fill-opacity="1"/><g clip-path="url(#9ef9eaa598)"><path fill="#007bff" d="M 176.320312 161.707031 C 175.988281 161.707031 175.65625 161.59375 175.394531 161.386719 L 158.457031 148.058594 C 158.09375 147.773438 157.882812 147.34375 157.882812 146.882812 C 157.882812 146.417969 158.09375 145.988281 158.457031 145.703125 L 175.394531 132.378906 C 175.65625 132.167969 175.988281 132.058594 176.320312 132.058594 C 176.785156 132.058594 177.214844 132.261719 177.5 132.628906 C 177.746094 132.941406 177.859375 133.335938 177.8125 133.734375 C 177.765625 134.132812 177.5625 134.488281 177.25 134.734375 L 161.8125 146.882812 L 177.25 159.027344 C 177.5625 159.277344 177.765625 159.632812 177.8125 160.027344 C 177.859375 160.425781 177.746094 160.816406 177.5 161.136719 C 177.214844 161.496094 176.785156 161.707031 176.320312 161.707031 " fill-opacity="1" fill-rule="nonzero"/></g><g clip-path="url(#706452f3e8)"><path fill="#000000" d="M 176.320312 131.417969 C 175.84375 131.417969 175.375 131.578125 175 131.875 L 158.0625 145.199219 C 157.542969 145.613281 157.246094 146.222656 157.246094 146.882812 C 157.246094 147.542969 157.542969 148.15625 158.0625 148.5625 L 175 161.886719 C 175.375 162.183594 175.84375 162.347656 176.320312 162.347656 C 176.984375 162.347656 177.597656 162.046875 178.003906 161.527344 C 178.359375 161.082031 178.511719 160.523438 178.445312 159.953125 C 178.378906 159.386719 178.09375 158.878906 177.644531 158.527344 L 162.84375 146.882812 L 177.644531 135.238281 C 178.09375 134.882812 178.378906 134.375 178.445312 133.808594 C 178.511719 133.242188 178.359375 132.683594 178.003906 132.234375 C 177.597656 131.714844 176.980469 131.417969 176.320312 131.417969 Z M 176.320312 132.695312 C 176.578125 132.695312 176.828125 132.808594 177 133.023438 C 177.292969 133.398438 177.226562 133.941406 176.855469 134.234375 L 160.777344 146.882812 L 176.855469 159.53125 C 177.226562 159.824219 177.292969 160.367188 177 160.738281 C 176.828125 160.957031 176.578125 161.070312 176.320312 161.070312 C 176.132812 161.070312 175.949219 161.007812 175.789062 160.882812 L 158.851562 147.558594 C 158.644531 147.394531 158.523438 147.144531 158.523438 146.882812 C 158.523438 146.617188 158.644531 146.367188 158.851562 146.203125 L 175.789062 132.878906 C 175.945312 132.753906 176.132812 132.695312 176.320312 132.695312 " fill-opacity="1" fill-rule="nonzero"/></g><g clip-path="url(#c5ee821c49)"><path fill="#007bff" d="M 198.667969 161.707031 C 198.207031 161.707031 197.777344 161.496094 197.488281 161.136719 C 196.976562 160.484375 197.089844 159.539062 197.742188 159.027344 L 213.179688 146.882812 L 197.742188 134.734375 C 197.089844 134.222656 196.976562 133.277344 197.488281 132.628906 C 197.777344 132.261719 198.207031 132.058594 198.667969 132.058594 C 199.003906 132.058594 199.332031 132.167969 199.597656 132.378906 L 216.535156 145.703125 C 216.898438 145.988281 217.105469 146.417969 217.105469 146.882812 C 217.105469 147.34375 216.898438 147.773438 216.53125 148.058594 L 199.597656 161.386719 C 199.332031 161.59375 199.003906 161.707031 198.667969 161.707031 " fill-opacity="1" fill-rule="nonzero"/></g><g clip-path="url(#d718a283f8)"><path fill="#000000" d="M 198.667969 131.417969 C 198.007812 131.417969 197.394531 131.714844 196.988281 132.234375 C 196.257812 133.160156 196.417969 134.507812 197.34375 135.238281 L 212.144531 146.882812 L 197.34375 158.527344 C 196.417969 159.253906 196.257812 160.601562 196.988281 161.527344 C 197.394531 162.046875 198.007812 162.347656 198.667969 162.347656 C 199.148438 162.347656 199.613281 162.183594 199.988281 161.886719 L 216.929688 148.5625 C 217.445312 148.15625 217.742188 147.542969 217.742188 146.882812 C 217.742188 146.222656 217.445312 145.613281 216.929688 145.199219 L 199.992188 131.875 C 199.617188 131.578125 199.148438 131.417969 198.667969 131.417969 Z M 198.667969 132.695312 C 198.855469 132.695312 199.042969 132.753906 199.199219 132.878906 L 216.140625 146.203125 C 216.347656 146.367188 216.464844 146.617188 216.464844 146.882812 C 216.464844 147.144531 216.347656 147.394531 216.140625 147.558594 L 199.199219 160.882812 C 199.042969 161.007812 198.855469 161.070312 198.667969 161.070312 C 198.414062 161.070312 198.160156 160.957031 197.992188 160.738281 C 197.699219 160.367188 197.761719 159.824219 198.136719 159.53125 L 214.210938 146.882812 L 198.136719 134.234375 C 197.761719 133.941406 197.699219 133.398438 197.992188 133.023438 C 198.160156 132.808594 198.414062 132.695312 198.667969 132.695312 " fill-opacity="1" fill-rule="nonzero"/></g><path fill="#007bff" d="M 179.078125 169.75 C 178.890625 169.75 178.710938 169.710938 178.535156 169.644531 C 178.164062 169.5 177.867188 169.21875 177.707031 168.855469 C 177.542969 168.484375 177.535156 168.078125 177.679688 167.707031 L 194.21875 124.972656 C 194.441406 124.402344 195.003906 124.015625 195.617188 124.015625 C 195.804688 124.015625 195.988281 124.050781 196.164062 124.117188 C 196.929688 124.417969 197.316406 125.289062 197.019531 126.058594 L 180.476562 168.789062 C 180.257812 169.363281 179.691406 169.75 179.078125 169.75 " fill-opacity="1" fill-rule="nonzero"/><g clip-path="url(#b7da53e247)"><path fill="#000000" d="M 195.617188 123.375 C 194.742188 123.375 193.9375 123.929688 193.625 124.742188 L 177.082031 167.472656 C 176.878906 168.007812 176.890625 168.589844 177.121094 169.113281 C 177.351562 169.632812 177.773438 170.035156 178.304688 170.242188 C 178.554688 170.339844 178.8125 170.386719 179.078125 170.386719 C 179.953125 170.386719 180.757812 169.835938 181.074219 169.019531 L 197.613281 126.289062 C 198.039062 125.1875 197.492188 123.945312 196.390625 123.523438 C 196.144531 123.425781 195.882812 123.375 195.617188 123.375 Z M 195.617188 124.652344 C 195.722656 124.652344 195.828125 124.675781 195.929688 124.714844 C 196.375 124.882812 196.59375 125.382812 196.421875 125.828125 L 179.878906 168.558594 C 179.75 168.898438 179.421875 169.109375 179.078125 169.109375 C 178.972656 169.109375 178.867188 169.089844 178.765625 169.050781 C 178.320312 168.878906 178.101562 168.378906 178.277344 167.9375 L 194.816406 125.207031 C 194.949219 124.863281 195.273438 124.652344 195.617188 124.652344 " fill-opacity="1" fill-rule="nonzero"/></g><g fill="#ffffff" fill-opacity="1"><g transform="translate(49.572324, 208.062145)"><g><path d="M 18 0 L 18 -4.410156 L 6.328125 -4.410156 L 6.328125 -10.351562 L 16.890625 -10.351562 L 16.890625 -14.519531 L 6.328125 -14.519531 L 6.328125 -19.921875 L 17.941406 -19.921875 L 17.941406 -24.328125 L 1.648438 -24.328125 L 1.648438 0 Z M 18 0 "/></g></g></g><g fill="#ffffff" fill-opacity="1"><g transform="translate(67.632304, 208.062145)"><g><path d="M 6.390625 0 L 6.390625 -13.378906 C 7.351562 -13.589844 8.21875 -13.679688 8.96875 -13.679688 C 10.828125 -13.679688 12.03125 -12.898438 12.03125 -10.710938 L 12.03125 0 L 16.769531 0 L 16.769531 -10.710938 C 16.769531 -12.511719 17.308594 -13.679688 19.648438 -13.679688 C 21.988281 -13.679688 22.53125 -12.511719 22.53125 -10.710938 L 22.53125 0 L 27.300781 0 L 27.300781 -11.25 C 27.300781 -16.199219 24.570312 -17.941406 20.101562 -17.941406 C 17.609375 -17.941406 15.601562 -17.25 14.371094 -15.628906 C 13.289062 -17.308594 11.371094 -17.941406 9.179688 -17.941406 C 7.648438 -17.941406 4.558594 -17.578125 1.621094 -17.039062 L 1.621094 0 Z M 6.390625 0 "/></g></g></g><g fill="#ffffff" fill-opacity="1"><g transform="translate(95.412278, 208.062145)"><g><path d="M 9.660156 -17.820312 C 7.46875 -17.820312 4.921875 -17.339844 3.628906 -16.828125 L 2.578125 -12.601562 C 4.46875 -13.351562 6.929688 -13.800781 8.640625 -13.800781 C 11.28125 -13.800781 12.78125 -13.019531 12.78125 -10.859375 L 12.78125 -10.230469 C 11.371094 -10.410156 10.140625 -10.46875 8.878906 -10.46875 C 4.171875 -10.46875 1.199219 -8.789062 1.199219 -5.128906 L 1.199219 -5.070312 C 1.199219 -1.019531 4.46875 0.480469 9.75 0.480469 C 12.089844 0.480469 15.179688 0.148438 17.550781 -0.359375 L 17.550781 -11.011719 C 17.550781 -16.109375 14.429688 -17.820312 9.660156 -17.820312 Z M 6.089844 -5.371094 C 6.089844 -6.898438 7.53125 -7.441406 9.929688 -7.441406 C 10.679688 -7.441406 11.820312 -7.351562 12.78125 -7.199219 L 12.78125 -3.480469 C 11.789062 -3.328125 10.738281 -3.238281 9.929688 -3.238281 C 7.5 -3.238281 6.089844 -3.839844 6.089844 -5.308594 Z M 6.089844 -5.371094 "/></g></g></g><g fill="#ffffff" fill-opacity="1"><g transform="translate(113.382265, 208.062145)"><g><path d="M 6.390625 0 L 6.390625 -13.351562 C 7.5 -13.53125 8.578125 -13.648438 9.421875 -13.648438 C 11.640625 -13.648438 12.839844 -12.839844 12.839844 -10.679688 L 12.839844 0 L 17.578125 0 L 17.578125 -11.25 C 17.578125 -16.410156 13.890625 -17.910156 9.628906 -17.910156 C 7.890625 -17.910156 4.5 -17.519531 1.621094 -17.011719 L 1.621094 0 Z M 6.390625 0 "/></g></g></g><g fill="#ffffff" fill-opacity="1"><g transform="translate(131.472237, 208.062145)"><g><path d="M 19.050781 -8.039062 C 19.050781 -14.191406 15.691406 -17.910156 10.171875 -17.910156 C 4.710938 -17.910156 1.199219 -14.128906 1.199219 -8.761719 L 1.199219 -8.730469 C 1.199219 -3.269531 4.949219 0.449219 10.738281 0.449219 C 14.101562 0.449219 16.46875 -0.601562 18.210938 -1.679688 L 16.140625 -5.371094 C 14.878906 -4.46875 13.050781 -3.71875 10.949219 -3.71875 C 8.339844 -3.71875 6.628906 -5.398438 6.148438 -7.621094 L 19.050781 -7.621094 Z M 10.140625 -14.039062 C 12.449219 -14.039062 13.828125 -12.539062 14.191406 -10.558594 L 6.179688 -10.558594 C 6.628906 -12.539062 8.070312 -14.039062 10.140625 -14.039062 Z M 10.140625 -14.039062 "/></g></g></g><g fill="#ffffff" fill-opacity="1"><g transform="translate(150.612216, 208.062145)"><g/></g></g><g fill="#ffffff" fill-opacity="1"><g transform="translate(154.542209, 208.062145)"><g><path d="M 9.929688 0 C 18.359375 0 22.558594 -4.648438 22.558594 -12.269531 L 22.558594 -12.328125 C 22.558594 -19.738281 18.390625 -24.328125 9.929688 -24.328125 L 1.621094 -24.328125 L 1.621094 0 Z M 6.359375 -19.921875 L 9.808594 -19.921875 C 14.96875 -19.921875 17.730469 -17.25 17.730469 -12.328125 L 17.730469 -12.269531 C 17.730469 -7.140625 14.941406 -4.410156 9.808594 -4.410156 L 6.359375 -4.410156 Z M 6.359375 -19.921875 "/></g></g></g><g fill="#ffffff" fill-opacity="1"><g transform="translate(177.162187, 208.062145)"><g><path d="M 9.660156 -17.820312 C 7.46875 -17.820312 4.921875 -17.339844 3.628906 -16.828125 L 2.578125 -12.601562 C 4.46875 -13.351562 6.929688 -13.800781 8.640625 -13.800781 C 11.28125 -13.800781 12.78125 -13.019531 12.78125 -10.859375 L 12.78125 -10.230469 C 11.371094 -10.410156 10.140625 -10.46875 8.878906 -10.46875 C 4.171875 -10.46875 1.199219 -8.789062 1.199219 -5.128906 L 1.199219 -5.070312 C 1.199219 -1.019531 4.46875 0.480469 9.75 0.480469 C 12.089844 0.480469 15.179688 0.148438 17.550781 -0.359375 L 17.550781 -11.011719 C 17.550781 -16.109375 14.429688 -17.820312 9.660156 -17.820312 Z M 6.089844 -5.371094 C 6.089844 -6.898438 7.53125 -7.441406 9.929688 -7.441406 C 10.679688 -7.441406 11.820312 -7.351562 12.78125 -7.199219 L 12.78125 -3.480469 C 11.789062 -3.328125 10.738281 -3.238281 9.929688 -3.238281 C 7.5 -3.238281 6.089844 -3.839844 6.089844 -5.308594 Z M 6.089844 -5.371094 "/></g></g></g><g fill="#ffffff" fill-opacity="1"><g transform="translate(195.132168, 208.062145)"><g><path d="M 6.390625 0 L 6.390625 -13.351562 C 7.5 -13.53125 8.578125 -13.648438 9.421875 -13.648438 C 11.640625 -13.648438 12.839844 -12.839844 12.839844 -10.679688 L 12.839844 0 L 17.578125 0 L 17.578125 -11.25 C 17.578125 -16.410156 13.890625 -17.910156 9.628906 -17.910156 C 7.890625 -17.910156 4.5 -17.519531 1.621094 -17.011719 L 1.621094 0 Z M 6.390625 0 "/></g></g></g><g fill="#ffffff" fill-opacity="1"><g transform="translate(213.22214, 208.062145)"><g><path d="M 3.988281 -19.46875 C 5.308594 -19.46875 6.359375 -20.128906 6.359375 -21.570312 C 6.359375 -22.859375 5.398438 -23.640625 3.988281 -23.640625 C 2.609375 -23.640625 1.621094 -22.859375 1.621094 -21.570312 C 1.621094 -20.128906 2.699219 -19.46875 3.988281 -19.46875 Z M 6.390625 0 L 6.390625 -17.21875 L 1.621094 -17.21875 L 1.621094 0 Z M 6.390625 0 "/></g></g></g><g fill="#ffffff" fill-opacity="1"><g transform="translate(220.092131, 208.062145)"><g><path d="M 19.050781 -8.039062 C 19.050781 -14.191406 15.691406 -17.910156 10.171875 -17.910156 C 4.710938 -17.910156 1.199219 -14.128906 1.199219 -8.761719 L 1.199219 -8.730469 C 1.199219 -3.269531 4.949219 0.449219 10.738281 0.449219 C 14.101562 0.449219 16.46875 -0.601562 18.210938 -1.679688 L 16.140625 -5.371094 C 14.878906 -4.46875 13.050781 -3.71875 10.949219 -3.71875 C 8.339844 -3.71875 6.628906 -5.398438 6.148438 -7.621094 L 19.050781 -7.621094 Z M 10.140625 -14.039062 C 12.449219 -14.039062 13.828125 -12.539062 14.191406 -10.558594 L 6.179688 -10.558594 C 6.628906 -12.539062 8.070312 -14.039062 10.140625 -14.039062 Z M 10.140625 -14.039062 "/></g></g></g><g fill="#ffffff" fill-opacity="1"><g transform="translate(239.232111, 208.062145)"><g><path d="M 6.390625 0 L 6.390625 -24.328125 L 1.621094 -24.328125 L 1.621094 0 Z M 6.390625 0 "/></g></g></g><g fill="#ffffff" fill-opacity="1"><g transform="translate(246.102113, 208.062145)"><g/></g></g><g fill="#ffffff" fill-opacity="1"><g transform="translate(250.032105, 208.062145)"><g><path d="M 24.390625 0 L 15.238281 -24.328125 L 9.511719 -24.328125 L 0.421875 0 L 5.28125 0 L 7.46875 -6.179688 L 17.308594 -6.179688 L 19.5 0 Z M 15.839844 -10.230469 L 8.910156 -10.230469 L 12.359375 -19.710938 Z M 15.839844 -10.230469 "/></g></g></g><g fill="#ffffff" fill-opacity="1"><g transform="translate(273.702079, 208.062145)"><g><path d="M 6.390625 -8.96875 L 6.390625 -24.328125 L 1.648438 -24.328125 L 1.648438 0 L 6.390625 0 L 6.390625 -8.550781 L 6.539062 -8.761719 Z M 11.851562 -8.820312 L 17.96875 -17.21875 L 12.75 -17.21875 L 6.539062 -8.761719 L 12.691406 0 L 18.269531 0 Z M 11.851562 -8.820312 "/></g></g></g><g fill="#ffffff" fill-opacity="1"><g transform="translate(291.192061, 208.062145)"><g><path d="M 3.988281 -19.46875 C 5.308594 -19.46875 6.359375 -20.128906 6.359375 -21.570312 C 6.359375 -22.859375 5.398438 -23.640625 3.988281 -23.640625 C 2.609375 -23.640625 1.621094 -22.859375 1.621094 -21.570312 C 1.621094 -20.128906 2.699219 -19.46875 3.988281 -19.46875 Z M 6.390625 0 L 6.390625 -17.21875 L 1.621094 -17.21875 L 1.621094 0 Z M 6.390625 0 "/></g></g></g><g fill="#ffffff" fill-opacity="1"><g transform="translate(298.062063, 208.062145)"><g><path d="M 6.390625 0 L 6.390625 -13.378906 C 7.351562 -13.589844 8.21875 -13.679688 8.96875 -13.679688 C 10.828125 -13.679688 12.03125 -12.898438 12.03125 -10.710938 L 12.03125 0 L 16.769531 0 L 16.769531 -10.710938 C 16.769531 -12.511719 17.308594 -13.679688 19.648438 -13.679688 C 21.988281 -13.679688 22.53125 -12.511719 22.53125 -10.710938 L 22.53125 0 L 27.300781 0 L 27.300781 -11.25 C 27.300781 -16.199219 24.570312 -17.941406 20.101562 -17.941406 C 17.609375 -17.941406 15.601562 -17.25 14.371094 -15.628906 C 13.289062 -17.308594 11.371094 -17.941406 9.179688 -17.941406 C 7.648438 -17.941406 4.558594 -17.578125 1.621094 -17.039062 L 1.621094 0 Z M 6.390625 0 "/></g></g></g><g fill="#007bff" fill-opacity="1"><g transform="translate(60.429105, 245.299906)"><g><path d="M 6.367188 0 C 11.773438 0 14.464844 -2.980469 14.464844 -7.867188 L 14.464844 -7.90625 C 14.464844 -12.660156 11.792969 -15.601562 6.367188 -15.601562 L 1.039062 -15.601562 L 1.039062 0 Z M 4.078125 -12.773438 L 6.289062 -12.773438 C 9.597656 -12.773438 11.371094 -11.0625 11.371094 -7.90625 L 11.371094 -7.867188 C 11.371094 -4.578125 9.582031 -2.828125 6.289062 -2.828125 L 4.078125 -2.828125 Z M 4.078125 -12.773438 "/></g></g></g><g fill="#007bff" fill-opacity="1"><g transform="translate(74.928566, 245.299906)"><g><path d="M 6.828125 -15.371094 L 5.289062 -12.464844 L 7.445312 -12.464844 L 10.617188 -15.371094 Z M 12.214844 -5.15625 C 12.214844 -9.097656 10.0625 -11.484375 6.523438 -11.484375 C 3.019531 -11.484375 0.769531 -9.0625 0.769531 -5.617188 L 0.769531 -5.597656 C 0.769531 -2.097656 3.175781 0.289062 6.886719 0.289062 C 9.042969 0.289062 10.5625 -0.382812 11.675781 -1.078125 L 10.351562 -3.445312 C 9.542969 -2.867188 8.367188 -2.386719 7.023438 -2.386719 C 5.347656 -2.386719 4.25 -3.460938 3.945312 -4.886719 L 12.214844 -4.886719 Z M 6.503906 -9.003906 C 7.984375 -9.003906 8.867188 -8.042969 9.097656 -6.773438 L 3.964844 -6.773438 C 4.25 -8.042969 5.175781 -9.003906 6.503906 -9.003906 Z M 6.503906 -9.003906 "/></g></g></g><g fill="#007bff" fill-opacity="1"><g transform="translate(87.197289, 245.299906)"><g><path d="M 6.097656 -2.15625 L 3.425781 -11.042969 L 0.230469 -11.042969 L 4 0 L 8.195312 0 L 11.964844 -11.042969 L 8.773438 -11.042969 Z M 6.097656 -2.15625 "/></g></g></g><g fill="#007bff" fill-opacity="1"><g transform="translate(98.658331, 245.299906)"><g><path d="M 12.214844 -5.15625 C 12.214844 -9.097656 10.0625 -11.484375 6.523438 -11.484375 C 3.019531 -11.484375 0.769531 -9.0625 0.769531 -5.617188 L 0.769531 -5.597656 C 0.769531 -2.097656 3.175781 0.289062 6.886719 0.289062 C 9.042969 0.289062 10.5625 -0.382812 11.675781 -1.078125 L 10.351562 -3.445312 C 9.542969 -2.867188 8.367188 -2.386719 7.023438 -2.386719 C 5.347656 -2.386719 4.25 -3.460938 3.945312 -4.886719 L 12.214844 -4.886719 Z M 6.503906 -9.003906 C 7.984375 -9.003906 8.867188 -8.042969 9.097656 -6.773438 L 3.964844 -6.773438 C 4.25 -8.042969 5.175781 -9.003906 6.503906 -9.003906 Z M 6.503906 -9.003906 "/></g></g></g><g fill="#007bff" fill-opacity="1"><g transform="translate(110.927055, 245.299906)"><g><path d="M 4.097656 0 L 4.097656 -15.601562 L 1.039062 -15.601562 L 1.039062 0 Z M 4.097656 0 "/></g></g></g><g fill="#007bff" fill-opacity="1"><g transform="translate(115.330484, 245.299906)"><g><path d="M 6.90625 0.308594 C 10.523438 0.308594 13.042969 -2.191406 13.042969 -5.597656 L 13.042969 -5.617188 C 13.042969 -9.003906 10.523438 -11.484375 6.90625 -11.484375 C 3.289062 -11.484375 0.789062 -9.003906 0.789062 -5.617188 L 0.789062 -5.597656 C 0.789062 -2.191406 3.308594 0.308594 6.90625 0.308594 Z M 6.90625 -2.425781 C 5.078125 -2.425781 3.847656 -3.808594 3.847656 -5.597656 L 3.847656 -5.636719 C 3.847656 -7.40625 5.058594 -8.753906 6.90625 -8.753906 C 8.773438 -8.753906 9.964844 -7.40625 9.964844 -5.636719 L 9.964844 -5.597656 C 9.964844 -3.808594 8.753906 -2.425781 6.90625 -2.425781 Z M 6.90625 -2.425781 "/></g></g></g><g fill="#007bff" fill-opacity="1"><g transform="translate(128.406886, 245.299906)"><g><path d="M 4.097656 4.230469 L 4.097656 -0.0195312 C 4.769531 0.152344 5.484375 0.289062 6.195312 0.289062 C 9.945312 0.289062 12.195312 -2.191406 12.195312 -5.558594 L 12.195312 -5.597656 C 12.195312 -8.984375 9.832031 -11.484375 6.058594 -11.484375 C 4 -11.484375 2.367188 -10.964844 1.039062 -10.425781 L 1.039062 4.230469 Z M 6.058594 -2.441406 C 5.40625 -2.441406 4.695312 -2.597656 4.097656 -2.75 L 4.097656 -8.523438 C 4.695312 -8.675781 5.347656 -8.753906 6.058594 -8.753906 C 8.078125 -8.753906 9.117188 -7.386719 9.117188 -5.597656 L 9.117188 -5.558594 C 9.117188 -3.789062 8.078125 -2.441406 6.058594 -2.441406 Z M 6.058594 -2.441406 "/></g></g></g><g fill="#007bff" fill-opacity="1"><g transform="translate(140.656383, 245.299906)"><g><path d="M 4.097656 4.230469 L 4.097656 -0.0195312 C 4.769531 0.152344 5.484375 0.289062 6.195312 0.289062 C 9.945312 0.289062 12.195312 -2.191406 12.195312 -5.558594 L 12.195312 -5.597656 C 12.195312 -8.984375 9.832031 -11.484375 6.058594 -11.484375 C 4 -11.484375 2.367188 -10.964844 1.039062 -10.425781 L 1.039062 4.230469 Z M 6.058594 -2.441406 C 5.40625 -2.441406 4.695312 -2.597656 4.097656 -2.75 L 4.097656 -8.523438 C 4.695312 -8.675781 5.347656 -8.753906 6.058594 -8.753906 C 8.078125 -8.753906 9.117188 -7.386719 9.117188 -5.597656 L 9.117188 -5.558594 C 9.117188 -3.789062 8.078125 -2.441406 6.058594 -2.441406 Z M 6.058594 -2.441406 "/></g></g></g><g fill="#007bff" fill-opacity="1"><g transform="translate(152.905881, 245.299906)"><g><path d="M 12.214844 -5.15625 C 12.214844 -9.097656 10.0625 -11.484375 6.523438 -11.484375 C 3.019531 -11.484375 0.769531 -9.0625 0.769531 -5.617188 L 0.769531 -5.597656 C 0.769531 -2.097656 3.175781 0.289062 6.886719 0.289062 C 9.042969 0.289062 10.5625 -0.382812 11.675781 -1.078125 L 10.351562 -3.445312 C 9.542969 -2.867188 8.367188 -2.386719 7.023438 -2.386719 C 5.347656 -2.386719 4.25 -3.460938 3.945312 -4.886719 L 12.214844 -4.886719 Z M 6.503906 -9.003906 C 7.984375 -9.003906 8.867188 -8.042969 9.097656 -6.773438 L 3.964844 -6.773438 C 4.25 -8.042969 5.175781 -9.003906 6.503906 -9.003906 Z M 6.503906 -9.003906 "/></g></g></g><g fill="#007bff" fill-opacity="1"><g transform="translate(165.174604, 245.299906)"><g><path d="M 6.15625 0.308594 C 7.273438 0.308594 9.445312 0.0585938 11.273438 -0.269531 L 11.273438 -11.042969 L 8.234375 -11.042969 L 8.234375 -2.5 C 7.523438 -2.367188 6.828125 -2.308594 6.289062 -2.308594 C 4.847656 -2.308594 4.097656 -2.808594 4.097656 -4.214844 L 4.097656 -11.042969 L 1.039062 -11.042969 L 1.039062 -3.964844 C 1.039062 -0.652344 3.425781 0.308594 6.15625 0.308594 Z M 6.15625 0.308594 "/></g></g></g><g fill="#007bff" fill-opacity="1"><g transform="translate(176.77025, 245.299906)"><g><path d="M 4.097656 0 L 4.097656 -8.078125 C 4.347656 -8.136719 5.597656 -8.234375 6.058594 -8.234375 L 7.714844 -8.234375 L 7.714844 -11.042969 L 5.558594 -11.042969 C 4.558594 -11.042969 2.65625 -10.964844 1.039062 -10.617188 L 1.039062 0 Z M 4.097656 0 "/></g></g></g><g fill="#007bff" fill-opacity="1"><g transform="translate(184.481324, 245.299906)"><g/></g></g><g fill="#007bff" fill-opacity="1"><g transform="translate(187.000157, 245.299906)"><g><path d="M 12.851562 -5.484375 C 12.621094 -4.5 12.40625 -3.539062 12.234375 -2.789062 L 11.621094 -5.5 L 10.484375 -11.042969 L 6.964844 -11.042969 L 5.847656 -5.519531 L 5.214844 -2.558594 C 5.039062 -3.367188 4.886719 -4.15625 4.597656 -5.484375 L 3.5 -11.042969 L 0.347656 -11.042969 L 3.097656 0 L 6.945312 0 L 8.117188 -5.5 C 8.40625 -6.734375 8.578125 -7.558594 8.734375 -8.253906 C 8.945312 -7.328125 9.136719 -6.40625 9.347656 -5.5 L 10.503906 0 L 14.410156 0 L 17.082031 -11.042969 L 13.929688 -11.042969 Z M 12.851562 -5.484375 "/></g></g></g><g fill="#007bff" fill-opacity="1"><g transform="translate(203.691902, 245.299906)"><g><path d="M 12.214844 -5.15625 C 12.214844 -9.097656 10.0625 -11.484375 6.523438 -11.484375 C 3.019531 -11.484375 0.769531 -9.0625 0.769531 -5.617188 L 0.769531 -5.597656 C 0.769531 -2.097656 3.175781 0.289062 6.886719 0.289062 C 9.042969 0.289062 10.5625 -0.382812 11.675781 -1.078125 L 10.351562 -3.445312 C 9.542969 -2.867188 8.367188 -2.386719 7.023438 -2.386719 C 5.347656 -2.386719 4.25 -3.460938 3.945312 -4.886719 L 12.214844 -4.886719 Z M 6.503906 -9.003906 C 7.984375 -9.003906 8.867188 -8.042969 9.097656 -6.773438 L 3.964844 -6.773438 C 4.25 -8.042969 5.175781 -9.003906 6.503906 -9.003906 Z M 6.503906 -9.003906 "/></g></g></g><g fill="#007bff" fill-opacity="1"><g transform="translate(215.960619, 245.299906)"><g><path d="M 6.058594 0.308594 C 9.832031 0.308594 12.195312 -2.191406 12.195312 -5.578125 L 12.195312 -5.617188 C 12.195312 -9.003906 9.964844 -11.484375 6.195312 -11.484375 C 5.484375 -11.484375 4.769531 -11.351562 4.097656 -11.195312 L 4.097656 -15.601562 L 1.039062 -15.601562 L 1.039062 -0.769531 C 2.617188 0 4 0.308594 6.058594 0.308594 Z M 6.058594 -2.425781 C 5.347656 -2.425781 4.695312 -2.519531 4.097656 -2.675781 L 4.097656 -8.464844 C 4.695312 -8.597656 5.40625 -8.753906 6.058594 -8.753906 C 8.078125 -8.753906 9.117188 -7.386719 9.117188 -5.617188 L 9.117188 -5.578125 C 9.117188 -3.808594 8.078125 -2.425781 6.058594 -2.425781 Z M 6.058594 -2.425781 "/></g></g></g><g fill="#007bff" fill-opacity="1"><g transform="translate(228.210111, 245.299906)"><g/></g></g><g fill="#007bff" fill-opacity="1"><g transform="translate(230.728944, 245.299906)"><g><path d="M 5.425781 0 L 5.425781 -8.273438 L 9.464844 -8.273438 L 9.464844 -11.042969 L 5.425781 -11.042969 L 5.425781 -11.945312 C 5.425781 -12.8125 5.925781 -13.371094 7.273438 -13.371094 L 9.484375 -13.371094 L 9.484375 -15.601562 L 6.964844 -15.601562 C 3.964844 -15.601562 2.367188 -14.449219 2.367188 -12.082031 L 2.367188 -11.042969 L 0.441406 -11.042969 L 0.441406 -8.273438 L 2.367188 -8.273438 L 2.367188 0 Z M 5.425781 0 "/></g></g></g><g fill="#007bff" fill-opacity="1"><g transform="translate(240.209229, 245.299906)"><g><path d="M 6.15625 0.308594 C 7.273438 0.308594 9.445312 0.0585938 11.273438 -0.269531 L 11.273438 -11.042969 L 8.234375 -11.042969 L 8.234375 -2.5 C 7.523438 -2.367188 6.828125 -2.308594 6.289062 -2.308594 C 4.847656 -2.308594 4.097656 -2.808594 4.097656 -4.214844 L 4.097656 -11.042969 L 1.039062 -11.042969 L 1.039062 -3.964844 C 1.039062 -0.652344 3.425781 0.308594 6.15625 0.308594 Z M 6.15625 0.308594 "/></g></g></g><g fill="#007bff" fill-opacity="1"><g transform="translate(251.804875, 245.299906)"><g><path d="M 4.097656 0 L 4.097656 -15.601562 L 1.039062 -15.601562 L 1.039062 0 Z M 4.097656 0 "/></g></g></g><g fill="#007bff" fill-opacity="1"><g transform="translate(256.208298, 245.299906)"><g><path d="M 4.097656 0 L 4.097656 -15.601562 L 1.039062 -15.601562 L 1.039062 0 Z M 4.097656 0 "/></g></g></g><g fill="#007bff" fill-opacity="1"><g transform="translate(260.611732, 245.299906)"><g><path d="M 5.636719 0.25 C 8.925781 0.25 10.5625 -0.941406 10.5625 -3.328125 C 10.5625 -5.078125 9.40625 -6.15625 6.925781 -6.847656 L 6.136719 -7.058594 C 4.808594 -7.445312 4.269531 -7.714844 4.269531 -8.273438 C 4.269531 -8.886719 4.925781 -9.097656 6.039062 -9.097656 C 6.984375 -9.097656 8.3125 -8.886719 9.292969 -8.367188 L 10.175781 -10.503906 C 9.042969 -11.101562 7.347656 -11.464844 5.675781 -11.464844 C 2.808594 -11.464844 1.191406 -10.214844 1.191406 -8.175781 C 1.191406 -6.347656 2.230469 -5.269531 4.539062 -4.65625 L 5.578125 -4.386719 C 7.195312 -3.945312 7.558594 -3.695312 7.558594 -3.097656 C 7.558594 -2.289062 6.675781 -2.117188 5.367188 -2.117188 C 4.25 -2.117188 2.90625 -2.367188 1.617188 -2.925781 L 0.789062 -0.710938 C 2.367188 -0.0585938 3.90625 0.25 5.636719 0.25 Z M 5.636719 0.25 "/></g></g></g><g fill="#007bff" fill-opacity="1"><g transform="translate(271.207404, 245.299906)"><g><path d="M 9.484375 0 L 9.484375 -2.828125 L 7.347656 -2.828125 C 6.039062 -2.828125 5.445312 -3.328125 5.445312 -4.558594 L 5.445312 -8.234375 L 9.464844 -8.234375 L 9.464844 -11.042969 L 5.445312 -11.042969 L 5.445312 -14.429688 L 2.386719 -14.429688 L 2.386719 -11.042969 L 0.441406 -11.042969 L 0.441406 -8.234375 L 2.386719 -8.234375 L 2.386719 -3.597656 C 2.386719 -1.191406 3.347656 0 5.984375 0 Z M 9.484375 0 "/></g></g></g><g fill="#007bff" fill-opacity="1"><g transform="translate(280.764616, 245.299906)"><g><path d="M 6.195312 -11.425781 C 4.789062 -11.425781 3.15625 -11.121094 2.328125 -10.792969 L 1.65625 -8.078125 C 2.867188 -8.5625 4.445312 -8.847656 5.539062 -8.847656 C 7.234375 -8.847656 8.195312 -8.347656 8.195312 -6.964844 L 8.195312 -6.558594 C 7.289062 -6.675781 6.503906 -6.714844 5.695312 -6.714844 C 2.675781 -6.714844 0.769531 -5.636719 0.769531 -3.289062 L 0.769531 -3.25 C 0.769531 -0.652344 2.867188 0.308594 6.253906 0.308594 C 7.753906 0.308594 9.734375 0.0976562 11.253906 -0.230469 L 11.253906 -7.058594 C 11.253906 -10.332031 9.253906 -11.425781 6.195312 -11.425781 Z M 3.90625 -3.445312 C 3.90625 -4.425781 4.828125 -4.769531 6.367188 -4.769531 C 6.847656 -4.769531 7.578125 -4.714844 8.195312 -4.617188 L 8.195312 -2.230469 C 7.558594 -2.136719 6.886719 -2.078125 6.367188 -2.078125 C 4.808594 -2.078125 3.90625 -2.460938 3.90625 -3.40625 Z M 3.90625 -3.445312 "/></g></g></g><g fill="#007bff" fill-opacity="1"><g transform="translate(292.283346, 245.299906)"><g><path d="M 6.773438 0.289062 C 8.097656 0.289062 9.542969 -0.0390625 10.582031 -0.617188 L 9.386719 -2.886719 C 8.617188 -2.480469 7.828125 -2.25 6.925781 -2.25 C 4.964844 -2.25 3.847656 -3.675781 3.847656 -5.578125 L 3.847656 -5.617188 C 3.847656 -7.542969 4.964844 -8.925781 6.925781 -8.925781 C 7.828125 -8.925781 8.636719 -8.675781 9.386719 -8.273438 L 10.601562 -10.542969 C 9.542969 -11.136719 8.097656 -11.484375 6.773438 -11.484375 C 3.136719 -11.484375 0.769531 -9.0625 0.769531 -5.617188 L 0.769531 -5.578125 C 0.769531 -2.117188 3.15625 0.289062 6.773438 0.289062 Z M 6.773438 0.289062 "/></g></g></g><g fill="#007bff" fill-opacity="1"><g transform="translate(302.609784, 245.299906)"><g><path d="M 4.097656 -5.753906 L 4.097656 -15.601562 L 1.058594 -15.601562 L 1.058594 0 L 4.097656 0 L 4.097656 -5.484375 L 4.195312 -5.617188 Z M 7.597656 -5.65625 L 11.523438 -11.042969 L 8.175781 -11.042969 L 4.195312 -5.617188 L 8.136719 0 L 11.714844 0 Z M 7.597656 -5.65625 "/></g></g></g></svg>